<mxfile host="app.diagrams.net" modified="2022-12-13T15:21:54.073Z" agent="5.0 (Windows)" version="20.6.0" etag="E4Mg1BM8wFT7kaTgETSs" type="github">
  <diagram id="RpEzXW0aeqHPb1Oh7XBy" name="Страница 1">
    <mxGraphModel dx="1422" dy="752" grid="1" gridSize="10" guides="1" tooltips="1" connect="1" arrows="1" fold="1" page="1" pageScale="1" pageWidth="1169" pageHeight="827" math="0" shadow="0">
      <root>
        <mxCell id="0" />
        <mxCell id="1" parent="0" />
        <mxCell id="9LYCyNpRd2TE8xRDB2AC-1" value="" style="shape=mxgraph.cisco.computers_and_peripherals.pc;sketch=0;html=1;pointerEvents=1;dashed=0;fillColor=#036897;strokeColor=#ffffff;strokeWidth=2;verticalLabelPosition=bottom;verticalAlign=top;align=center;outlineConnect=0;" vertex="1" parent="1">
          <mxGeometry x="1080" y="376" width="80" height="75.5" as="geometry" />
        </mxCell>
        <mxCell id="9LYCyNpRd2TE8xRDB2AC-3" value="" style="shape=mxgraph.cisco.routers.atm_router;sketch=0;html=1;pointerEvents=1;dashed=0;fillColor=#036897;strokeColor=#ffffff;strokeWidth=2;verticalLabelPosition=bottom;verticalAlign=top;align=center;outlineConnect=0;" vertex="1" parent="1">
          <mxGeometry x="521" y="260" width="78" height="53" as="geometry" />
        </mxCell>
        <mxCell id="9LYCyNpRd2TE8xRDB2AC-4" value="" style="shape=mxgraph.cisco.computers_and_peripherals.pc;sketch=0;html=1;pointerEvents=1;dashed=0;fillColor=#036897;strokeColor=#ffffff;strokeWidth=2;verticalLabelPosition=bottom;verticalAlign=top;align=center;outlineConnect=0;" vertex="1" parent="1">
          <mxGeometry x="10" y="413" width="80" height="87" as="geometry" />
        </mxCell>
        <mxCell id="9LYCyNpRd2TE8xRDB2AC-5" value="" style="shape=mxgraph.cisco.computers_and_peripherals.pc;sketch=0;html=1;pointerEvents=1;dashed=0;fillColor=#036897;strokeColor=#ffffff;strokeWidth=2;verticalLabelPosition=bottom;verticalAlign=top;align=center;outlineConnect=0;" vertex="1" parent="1">
          <mxGeometry x="510" y="10" width="100" height="80" as="geometry" />
        </mxCell>
        <mxCell id="9LYCyNpRd2TE8xRDB2AC-6" value="" style="shape=mxgraph.cisco.routers.atm_router;sketch=0;html=1;pointerEvents=1;dashed=0;fillColor=#036897;strokeColor=#ffffff;strokeWidth=2;verticalLabelPosition=bottom;verticalAlign=top;align=center;outlineConnect=0;" vertex="1" parent="1">
          <mxGeometry x="330" y="413" width="78" height="53" as="geometry" />
        </mxCell>
        <mxCell id="9LYCyNpRd2TE8xRDB2AC-7" value="" style="shape=mxgraph.cisco.routers.atm_router;sketch=0;html=1;pointerEvents=1;dashed=0;fillColor=#036897;strokeColor=#ffffff;strokeWidth=2;verticalLabelPosition=bottom;verticalAlign=top;align=center;outlineConnect=0;" vertex="1" parent="1">
          <mxGeometry x="710" y="413" width="78" height="53" as="geometry" />
        </mxCell>
        <mxCell id="9LYCyNpRd2TE8xRDB2AC-9" value="PC1" style="text;strokeColor=none;fillColor=none;html=1;fontSize=24;fontStyle=1;verticalAlign=middle;align=center;" vertex="1" parent="1">
          <mxGeometry x="610" y="20" width="100" height="40" as="geometry" />
        </mxCell>
        <mxCell id="9LYCyNpRd2TE8xRDB2AC-10" value="PC3" style="text;strokeColor=none;fillColor=none;html=1;fontSize=24;fontStyle=1;verticalAlign=middle;align=center;" vertex="1" parent="1">
          <mxGeometry x="1069" y="330" width="100" height="40" as="geometry" />
        </mxCell>
        <mxCell id="9LYCyNpRd2TE8xRDB2AC-13" value="PC2" style="text;strokeColor=none;fillColor=none;html=1;fontSize=24;fontStyle=1;verticalAlign=middle;align=center;" vertex="1" parent="1">
          <mxGeometry y="360" width="100" height="40" as="geometry" />
        </mxCell>
        <mxCell id="9LYCyNpRd2TE8xRDB2AC-18" value="" style="endArrow=classic;startArrow=classic;html=1;rounded=0;entryX=0.5;entryY=0;entryDx=0;entryDy=0;entryPerimeter=0;" edge="1" parent="1" source="9LYCyNpRd2TE8xRDB2AC-5" target="9LYCyNpRd2TE8xRDB2AC-3">
          <mxGeometry width="50" height="50" relative="1" as="geometry">
            <mxPoint x="620" y="350" as="sourcePoint" />
            <mxPoint x="670" y="300" as="targetPoint" />
          </mxGeometry>
        </mxCell>
        <mxCell id="9LYCyNpRd2TE8xRDB2AC-19" value="" style="endArrow=classic;startArrow=classic;html=1;rounded=0;exitX=1;exitY=0.5;exitDx=0;exitDy=0;exitPerimeter=0;" edge="1" parent="1" source="9LYCyNpRd2TE8xRDB2AC-7" target="9LYCyNpRd2TE8xRDB2AC-1">
          <mxGeometry width="50" height="50" relative="1" as="geometry">
            <mxPoint x="620" y="350" as="sourcePoint" />
            <mxPoint x="670" y="300" as="targetPoint" />
          </mxGeometry>
        </mxCell>
        <mxCell id="9LYCyNpRd2TE8xRDB2AC-20" value="" style="endArrow=classic;startArrow=classic;html=1;rounded=0;entryX=0;entryY=0.5;entryDx=0;entryDy=0;entryPerimeter=0;" edge="1" parent="1" source="9LYCyNpRd2TE8xRDB2AC-4" target="9LYCyNpRd2TE8xRDB2AC-6">
          <mxGeometry width="50" height="50" relative="1" as="geometry">
            <mxPoint x="620" y="350" as="sourcePoint" />
            <mxPoint x="670" y="300" as="targetPoint" />
          </mxGeometry>
        </mxCell>
        <mxCell id="9LYCyNpRd2TE8xRDB2AC-21" value="" style="endArrow=classic;startArrow=classic;html=1;rounded=0;exitX=0.5;exitY=0;exitDx=0;exitDy=0;exitPerimeter=0;entryX=0.5;entryY=0;entryDx=0;entryDy=0;" edge="1" parent="1" source="9LYCyNpRd2TE8xRDB2AC-6">
          <mxGeometry width="50" height="50" relative="1" as="geometry">
            <mxPoint x="620" y="350" as="sourcePoint" />
            <mxPoint x="560" y="313" as="targetPoint" />
          </mxGeometry>
        </mxCell>
        <mxCell id="9LYCyNpRd2TE8xRDB2AC-22" value="" style="endArrow=classic;startArrow=classic;html=1;rounded=0;exitX=0.5;exitY=0;exitDx=0;exitDy=0;exitPerimeter=0;entryX=0.5;entryY=0;entryDx=0;entryDy=0;" edge="1" parent="1" source="9LYCyNpRd2TE8xRDB2AC-7">
          <mxGeometry width="50" height="50" relative="1" as="geometry">
            <mxPoint x="620" y="350" as="sourcePoint" />
            <mxPoint x="560" y="313" as="targetPoint" />
          </mxGeometry>
        </mxCell>
        <mxCell id="9LYCyNpRd2TE8xRDB2AC-23" value="" style="endArrow=classic;startArrow=classic;html=1;rounded=0;exitX=1;exitY=0.5;exitDx=0;exitDy=0;exitPerimeter=0;entryX=0;entryY=0.5;entryDx=0;entryDy=0;entryPerimeter=0;" edge="1" parent="1" source="9LYCyNpRd2TE8xRDB2AC-6" target="9LYCyNpRd2TE8xRDB2AC-7">
          <mxGeometry width="50" height="50" relative="1" as="geometry">
            <mxPoint x="620" y="350" as="sourcePoint" />
            <mxPoint x="670" y="300" as="targetPoint" />
          </mxGeometry>
        </mxCell>
        <mxCell id="9LYCyNpRd2TE8xRDB2AC-27" value="&lt;div&gt;eth2&lt;/div&gt;&lt;div&gt;192.168.20.254/24&lt;/div&gt;" style="text;html=1;strokeColor=none;fillColor=none;align=center;verticalAlign=middle;whiteSpace=wrap;rounded=0;" vertex="1" parent="1">
          <mxGeometry x="100" y="413" width="60" height="30" as="geometry" />
        </mxCell>
        <mxCell id="9LYCyNpRd2TE8xRDB2AC-28" value="&lt;div&gt;eth2&lt;/div&gt;&lt;div&gt;192.168.10.254/24&lt;/div&gt;" style="text;html=1;strokeColor=none;fillColor=none;align=center;verticalAlign=middle;whiteSpace=wrap;rounded=0;" vertex="1" parent="1">
          <mxGeometry x="599" y="70" width="60" height="30" as="geometry" />
        </mxCell>
        <mxCell id="9LYCyNpRd2TE8xRDB2AC-29" value="&lt;div&gt;eth2&lt;/div&gt;&lt;div&gt;192.168.30.254/24&lt;/div&gt;" style="text;html=1;strokeColor=none;fillColor=none;align=center;verticalAlign=middle;whiteSpace=wrap;rounded=0;" vertex="1" parent="1">
          <mxGeometry x="1009" y="436" width="60" height="30" as="geometry" />
        </mxCell>
        <mxCell id="9LYCyNpRd2TE8xRDB2AC-31" value="&lt;h1&gt;R01.MSK&lt;br&gt;&lt;/h1&gt;&lt;p&gt;dhcp-server:&lt;/p&gt;&lt;p&gt;192.168.10.10-192.168.10.254&lt;br&gt;&lt;/p&gt;" style="text;html=1;strokeColor=none;fillColor=none;spacing=5;spacingTop=-20;whiteSpace=wrap;overflow=hidden;rounded=0;" vertex="1" parent="1">
          <mxGeometry x="599" y="190" width="190" height="120" as="geometry" />
        </mxCell>
        <mxCell id="9LYCyNpRd2TE8xRDB2AC-32" value="&lt;h1&gt;R01.BRL&lt;/h1&gt;&lt;p&gt;dhcp-server:&lt;/p&gt;&lt;p&gt;192.168.30.10-192.168.30.254&lt;br&gt;&lt;/p&gt;" style="text;html=1;strokeColor=none;fillColor=none;spacing=5;spacingTop=-20;whiteSpace=wrap;overflow=hidden;rounded=0;" vertex="1" parent="1">
          <mxGeometry x="670" y="466" width="190" height="120" as="geometry" />
        </mxCell>
        <mxCell id="9LYCyNpRd2TE8xRDB2AC-33" value="&lt;h1&gt;R01.FRT&lt;/h1&gt;&lt;p&gt;dhcp-server:&lt;/p&gt;&lt;p&gt;192.168.20.10-192.168.20.254&lt;br&gt;&lt;/p&gt;" style="text;html=1;strokeColor=none;fillColor=none;spacing=5;spacingTop=-20;whiteSpace=wrap;overflow=hidden;rounded=0;" vertex="1" parent="1">
          <mxGeometry x="290" y="466" width="190" height="120" as="geometry" />
        </mxCell>
        <mxCell id="9LYCyNpRd2TE8xRDB2AC-34" value="&lt;div&gt;eth4&lt;/div&gt;&lt;div&gt;192.168.30.1&lt;/div&gt;" style="text;html=1;strokeColor=none;fillColor=none;align=center;verticalAlign=middle;whiteSpace=wrap;rounded=0;" vertex="1" parent="1">
          <mxGeometry x="800" y="399" width="60" height="30" as="geometry" />
        </mxCell>
        <mxCell id="9LYCyNpRd2TE8xRDB2AC-37" value="&lt;div&gt;eth4&lt;/div&gt;&lt;div&gt;192.168.20.1&lt;/div&gt;" style="text;html=1;strokeColor=none;fillColor=none;align=center;verticalAlign=middle;whiteSpace=wrap;rounded=0;" vertex="1" parent="1">
          <mxGeometry x="250" y="406" width="60" height="30" as="geometry" />
        </mxCell>
        <mxCell id="9LYCyNpRd2TE8xRDB2AC-38" value="&lt;div&gt;eth4&lt;/div&gt;&lt;div&gt;192.168.10.1&lt;/div&gt;" style="text;html=1;strokeColor=none;fillColor=none;align=center;verticalAlign=middle;whiteSpace=wrap;rounded=0;" vertex="1" parent="1">
          <mxGeometry x="490" y="220" width="60" height="30" as="geometry" />
        </mxCell>
        <mxCell id="9LYCyNpRd2TE8xRDB2AC-39" value="&lt;div&gt;eth3&lt;/div&gt;&lt;div&gt;10.10.2.1/30&lt;/div&gt;" style="text;html=1;strokeColor=none;fillColor=none;align=center;verticalAlign=middle;whiteSpace=wrap;rounded=0;" vertex="1" parent="1">
          <mxGeometry x="460" y="300" width="60" height="30" as="geometry" />
        </mxCell>
        <mxCell id="9LYCyNpRd2TE8xRDB2AC-40" value="&lt;div&gt;eth3&lt;/div&gt;&lt;div&gt;10.10.2.2/30&lt;/div&gt;" style="text;html=1;strokeColor=none;fillColor=none;align=center;verticalAlign=middle;whiteSpace=wrap;rounded=0;" vertex="1" parent="1">
          <mxGeometry x="330" y="365" width="60" height="30" as="geometry" />
        </mxCell>
        <mxCell id="9LYCyNpRd2TE8xRDB2AC-41" value="&lt;div&gt;eth3&lt;/div&gt;&lt;div&gt;10.10.3.2/30&lt;/div&gt;" style="text;html=1;strokeColor=none;fillColor=none;align=center;verticalAlign=middle;whiteSpace=wrap;rounded=0;" vertex="1" parent="1">
          <mxGeometry x="640" y="406" width="60" height="30" as="geometry" />
        </mxCell>
        <mxCell id="9LYCyNpRd2TE8xRDB2AC-42" value="&lt;div&gt;eth2&lt;/div&gt;&lt;div&gt;10.10.1.1/30&lt;/div&gt;" style="text;html=1;strokeColor=none;fillColor=none;align=center;verticalAlign=middle;whiteSpace=wrap;rounded=0;" vertex="1" parent="1">
          <mxGeometry x="585" y="300" width="60" height="30" as="geometry" />
        </mxCell>
        <mxCell id="9LYCyNpRd2TE8xRDB2AC-43" value="&lt;div&gt;eth2&lt;/div&gt;&lt;div&gt;10.10.3.1/30&lt;/div&gt;" style="text;html=1;strokeColor=none;fillColor=none;align=center;verticalAlign=middle;whiteSpace=wrap;rounded=0;" vertex="1" parent="1">
          <mxGeometry x="420" y="406" width="60" height="30" as="geometry" />
        </mxCell>
        <mxCell id="9LYCyNpRd2TE8xRDB2AC-44" value="&lt;div&gt;eth2&lt;/div&gt;&lt;div&gt;10.10.1.2/30&lt;/div&gt;" style="text;html=1;strokeColor=none;fillColor=none;align=center;verticalAlign=middle;whiteSpace=wrap;rounded=0;" vertex="1" parent="1">
          <mxGeometry x="690" y="350" width="60" height="30" as="geometry" />
        </mxCell>
      </root>
    </mxGraphModel>
  </diagram>
</mxfile>
